<?xml version="1.0" encoding="UTF-8" standalone="no"?>
<svg
   xmlns:dc="http://purl.org/dc/elements/1.1/"
   xmlns:cc="http://creativecommons.org/ns#"
   xmlns:rdf="http://www.w3.org/1999/02/22-rdf-syntax-ns#"
   xmlns:svg="http://www.w3.org/2000/svg"
   xmlns="http://www.w3.org/2000/svg"
   xmlns:sodipodi="http://sodipodi.sourceforge.net/DTD/sodipodi-0.dtd"
   xmlns:inkscape="http://www.inkscape.org/namespaces/inkscape"
   width="92.49999999999997mm"
   height="128.2000000000001mm"
   viewBox="0 0 92.49999999999997 128.2000000000001"
   version="1.1"
   id="svg12"
   sodipodi:docname="Frame2TTL_v2_Enclosure_r1_0.svg"
   inkscape:version="1.0.1 (3bc2e813f5, 2020-09-07)">
  <metadata
     id="metadata18">
    <rdf:RDF>
      <cc:Work
         rdf:about="">
        <dc:format>image/svg+xml</dc:format>
        <dc:type
           rdf:resource="http://purl.org/dc/dcmitype/StillImage" />
      </cc:Work>
    </rdf:RDF>
  </metadata>
  <defs
     id="defs16" />
  <sodipodi:namedview
     pagecolor="#ffffff"
     bordercolor="#666666"
     borderopacity="1"
     objecttolerance="10"
     gridtolerance="10"
     guidetolerance="10"
     inkscape:pageopacity="0"
     inkscape:pageshadow="2"
     inkscape:window-width="1920"
     inkscape:window-height="1002"
     id="namedview14"
     showgrid="false"
     inkscape:zoom="0.86680969"
     inkscape:cx="-25.942284"
     inkscape:cy="362.16292"
     inkscape:window-x="-8"
     inkscape:window-y="-8"
     inkscape:window-maximized="1"
     inkscape:current-layer="svg12" />
  <desc
     id="desc2">Output from Flights of Ideas SVG Sketchup Plugin</desc>
  <path
     id="face0-cut"
     style="fill:none;stroke:#ff0000;stroke-width:0.05;stroke-miterlimit:4;stroke-dasharray:none;stroke-linejoin:round;stroke-linecap:round;stroke-opacity:1"
     d="M 78.99999999999997,51.09999999999999 L 67.49999999999994,51.09999999999999 L 67.19098300562501,51.051056516295056 L 66.91221474770748,50.90901699437493 L 66.69098300562501,50.68778525229248 L 66.54894348370482,50.40901699437496 L 66.49999999999997,50.10000000000003 L 66.49999999999997,19.0 L 66.54894348370485,18.69098300562505 L 66.69098300562504,18.41221474770753 L 66.91221474770751,18.190983005625057 L 67.19098300562504,18.048943483704853 L 67.49999999999997,18.000000000000007 L 78.99999999999994,18.00000000000002 L 79.45684167277014,17.970057014808354 L 79.90586665785878,17.880740392011752 L 80.33939201327777,17.733578363789512 L 80.74999999999997,17.531088913245547 L 81.1306650015305,17.27673669101933 L 81.47487373415288,16.97487373415293 L 81.77673669101927,16.630665001530524 L 82.03108891324553,16.250000000000014 L 82.23357836378949,15.839392013277816 L 82.38074039201172,15.40586665785883 L 82.4700570148083,14.956841672770189 L 82.49999999999997,14.500000000000007 L 82.49999999999997,13.500000000000007 L 82.4327484814113,12.817183872943545 L 82.23357836378949,12.160607986722177 L 81.91014364305889,11.555504184431392 L 81.47487373415291,11.025126265847085 L 80.94449581556859,10.589856356941091 L 80.3393920132778,10.266421636210495 L 79.68281612705644,10.067251518588698 L 78.99999999999997,10.000000000000014 L 13.500000000000014,10.0 L 12.817183872943566,10.06725151858867 L 12.160607986722184,10.266421636210488 L 11.555504184431406,10.589856356941112 L 11.0251262658471,11.025126265847042 L 10.589856356941098,11.555504184431378 L 10.266421636210495,12.16060798672219 L 10.06725151858869,12.817183872943552 L 10.000000000000021,13.499999999999993 L 10.0,55.60000000000003 L 10.06725151858869,56.282816127056414 L 10.266421636210495,56.939392013277875 L 10.589856356941084,57.54449581556869 L 11.025126265847078,58.07487373415304 L 11.555504184431399,58.510143643058946 L 12.160607986722184,58.83357836378955 L 12.817183872943566,59.03274848141145 L 13.5,59.10000000000009 L 78.99999999999997,59.100000000000016 L 79.68281612705644,59.032748481411325 L 80.3393920132778,58.833578363789535 L 80.94449581556859,58.51014364305892 L 81.47487373415291,58.07487373415294 L 81.91014364305889,57.54449581556862 L 82.23357836378949,56.93939201327782 L 82.4327484814113,56.282816127056485 L 82.49999999999997,55.600000000000016 L 82.49999999999997,54.59999999999997 L 82.4700570148083,54.14315832722979 L 82.38074039201169,53.69413334214115 L 82.23357836378946,53.26060798672217 L 82.03108891324553,52.84999999999999 L 81.77673669101927,52.469334998469456 L 81.47487373415288,52.12512626584708 L 81.13066500153047,51.823263308980664 L 80.74999999999997,51.56891108675446 L 80.3393920132778,51.36642163621048 L 79.90586665785881,51.219259607988256 L 79.45684167277014,51.12994298519164 L 78.99999999999997,51.09999999999999 M 55.99999999999998,30.000000000000007 L 55.99999999999998,39.100000000000016 L 55.95105651629513,39.40901699437496 L 55.80901699437492,39.68778525229249 L 55.587785252292456,39.90901699437496 L 55.30901699437492,40.05105651629517 L 54.99999999999998,40.100000000000016 L 48.99999999999998,40.100000000000016 L 48.690983005625036,40.05105651629517 L 48.4122147477075,39.90901699437496 L 48.190983005625036,39.687785252292464 L 48.04894348370481,39.40901699437497 L 47.99999999999998,39.1 L 47.99999999999998,30.00000000000002 L 48.04894348370481,29.69098300562507 L 48.190983005625036,29.41221474770753 L 48.4122147477075,29.19098300562507 L 48.690983005625036,29.04894348370486 L 48.99999999999998,29.0 L 54.99999999999998,29.000000000000014 L 55.30901699437492,29.048943483704846 L 55.587785252292456,29.19098300562507 L 55.80901699437492,29.412214747707544 L 55.95105651629513,29.69098300562507 L 55.99999999999998,30.000000000000007 M 14.500000000000014,12.43999999999999 L 14.939992376674297,12.497926095308607 L 15.350000000000001,12.667756813566456 L 15.702081528017118,12.937918471982904 L 15.972243186433552,13.29 L 16.142073904691415,13.700007623325703 L 16.20000000000001,14.139999999999986 L 16.142073904691422,14.579992376674284 L 15.972243186433545,14.990000000000002 L 15.702081528017139,15.342081528017125 L 15.350000000000009,15.612243186433545 L 14.939992376674297,15.782073904691416 L 14.5,15.83999999999999 L 14.060007623325717,15.782073904691416 L 13.649999999999999,15.612243186433545 L 13.297918471982861,15.342081528017147 L 13.027756813566455,14.990000000000002 L 12.857926095308585,14.579992376674284 L 12.800000000000004,14.139999999999972 L 12.857926095308578,13.700007623325718 L 13.027756813566455,13.29000000000002 L 13.297918471982875,12.937918471982876 L 13.649999999999999,12.667756813566449 L 14.060007623325717,12.497926095308586 L 14.500000000000014,12.43999999999999 M 16.142073904691415,54.5100076233258 L 16.199999999999996,54.95000000000004 L 16.142073904691415,55.38999237667429 L 15.972243186433545,55.79999999999996 L 15.702081528017125,56.1520815280172 L 15.350000000000001,56.42224318643354 L 14.939992376674283,56.59207390469151 L 14.499999999999986,56.6499999999999 L 14.060007623325717,56.592073904691496 L 13.649999999999999,56.42224318643361 L 13.297918471982861,56.152081528017256 L 13.027756813566455,55.79999999999999 L 12.857926095308585,55.389992376674364 L 12.800000000000004,54.94999999999994 L 12.857926095308585,54.510007623325684 L 13.027756813566455,54.09999999999997 L 13.297918471982875,53.74791847198296 L 13.649999999999999,53.47775681356659 L 14.060007623325717,53.30792609530882 L 14.5,53.25000000000022 L 14.939992376674283,53.307926095308765 L 15.350000000000001,53.47775681356655 L 15.702081528017125,53.747918471982764 L 15.972243186433545,54.1000000000002 L 16.142073904691415,54.5100076233258 M 77.99999999999997,56.65000000000001 L 77.5600076233257,56.59207390469141 L 77.14999999999998,56.422243186433555 L 76.79791847198285,56.15208152801714 L 76.52775681356644,55.79999999999999 L 76.35792609530858,55.38999237667429 L 76.29999999999998,54.95000000000001 L 76.35792609530858,54.51000762332573 L 76.52775681356644,54.100000000000016 L 76.79791847198285,53.747918471982864 L 77.14999999999998,53.477756813566465 L 77.5600076233257,53.30792609530861 L 77.99999999999997,53.25000000000001 L 78.43999237667427,53.30792609530861 L 78.85,53.477756813566465 L 79.20208152801712,53.747918471982864 L 79.4722431864335,54.100000000000016 L 79.64207390469139,54.51000762332573 L 79.69999999999996,54.95000000000001 L 79.64207390469139,55.38999237667429 L 79.4722431864335,55.79999999999999 L 79.20208152801712,56.15208152801714 L 78.85,56.422243186433555 L 78.43999237667427,56.59207390469141 L 77.99999999999997,56.65000000000001 M 76.79791847198285,12.937918471982883 L 77.14999999999998,12.667756813566456 L 77.5600076233257,12.4979260953086 L 77.99999999999997,12.440000000000005 L 78.43999237667427,12.4979260953086 L 78.85,12.667756813566456 L 79.20208152801712,12.937918471982883 L 79.4722431864335,13.290000000000006 L 79.64207390469139,13.700007623325718 L 79.69999999999996,14.139999999999993 L 79.64207390469139,14.579992376674284 L 79.4722431864335,14.990000000000009 L 79.20208152801712,15.34208152801714 L 78.85,15.612243186433545 L 78.43999237667427,15.782073904691423 L 77.99999999999997,15.83999999999999 L 77.5600076233257,15.782073904691423 L 77.14999999999998,15.612243186433538 L 76.79791847198285,15.34208152801714 L 76.52775681356644,14.990000000000009 L 76.35792609530858,14.579992376674284 L 76.29999999999998,14.14 L 76.35792609530858,13.700007623325718 L 76.52775681356644,13.29000000000002 L 76.79791847198285,12.937918471982883 " />
  <path
     id="face1-cut"
     style="fill:none;stroke:#ff0000;stroke-width:0.05;stroke-miterlimit:4;stroke-dasharray:none;stroke-linejoin:round;stroke-linecap:round;stroke-opacity:1"
     d="M 10.0,114.7000000000001 L 10.067251518588698,115.38281612705654 L 10.266421636210502,116.0393920132779 L 10.589856356941091,116.64449581556872 L 11.025126265847092,117.17487373415304 L 11.555504184431392,117.61014364305902 L 12.160607986722198,117.93357836378962 L 12.817183872943552,118.13274848141143 L 13.5,118.2000000000001 L 78.99999999999997,118.2000000000001 L 79.68281612705643,118.13274848141143 L 80.3393920132778,117.93357836378952 L 80.94449581556859,117.61014364305913 L 81.4748737341529,117.17487373415324 L 81.91014364305889,116.64449581556883 L 82.23357836378948,116.03939201327788 L 82.43274848141128,115.3828161270554 L 82.49999999999997,114.7000000000001 L 82.49999999999997,72.60000000000011 L 82.43274848141128,71.91718387294367 L 82.23357836378948,71.2606079867223 L 81.91014364305889,70.65550418443149 L 81.4748737341529,70.12512626584719 L 80.94449581556859,69.68985635694122 L 80.3393920132778,69.36642163621062 L 79.68281612705643,69.1672515185888 L 78.99999999999997,69.10000000000008 L 13.500000000000014,69.10000000000011 L 12.817183872943552,69.16725151858881 L 12.160607986722198,69.36642163621062 L 11.555504184431406,69.68985635694119 L 11.025126265847092,70.1251262658472 L 10.589856356941091,70.65550418443149 L 10.26642163621051,71.2606079867223 L 10.067251518588698,71.91718387294367 L 10.0,72.60000000000011 L 10.0,114.7000000000001 M 14.500000000000007,71.5400000000001 L 14.939992376674283,71.59792609530871 L 15.350000000000009,71.76775681356656 L 15.702081528017125,72.03791847198298 L 15.972243186433552,72.39000000000011 L 16.142073904691422,72.80000762332583 L 16.199999999999996,73.24000000000011 L 16.142073904691408,73.67999237667439 L 15.972243186433538,74.09000000000012 L 15.702081528017139,74.44208152801724 L 15.350000000000009,74.71224318643367 L 14.939992376674283,74.88207390469152 L 14.500000000000007,74.94000000000011 L 14.060007623325717,74.88207390469152 L 13.649999999999999,74.71224318643365 L 13.297918471982875,74.44208152801724 L 13.027756813566455,74.09000000000012 L 12.8579260953086,73.67999237667439 L 12.800000000000004,73.24000000000011 L 12.8579260953086,72.80000762332583 L 13.027756813566455,72.39000000000011 L 13.297918471982875,72.03791847198298 L 13.650000000000013,71.76775681356656 L 14.060007623325724,71.59792609530871 L 14.500000000000007,71.5400000000001 M 16.142073904691422,113.61000762332583 L 16.20000000000001,114.0500000000001 L 16.142073904691422,114.4899923766744 L 15.972243186433552,114.90000000000009 L 15.702081528017139,115.25208152801724 L 15.350000000000009,115.52224318643366 L 14.939992376674283,115.69207390469151 L 14.5,115.7500000000001 L 14.060007623325717,115.69207390469151 L 13.649999999999999,115.52224318643366 L 13.297918471982875,115.25208152801724 L 13.027756813566455,114.9000000000001 L 12.857926095308585,114.4899923766744 L 12.800000000000004,114.0500000000001 L 12.857926095308585,113.61000762332583 L 13.027756813566455,113.2000000000001 L 13.297918471982875,112.84791847198298 L 13.649999999999999,112.57775681356657 L 14.060007623325724,112.4079260953087 L 14.5,112.35000000000011 L 14.939992376674283,112.4079260953087 L 15.350000000000009,112.57775681356657 L 15.702081528017139,112.84791847198298 L 15.972243186433552,113.2000000000001 L 16.142073904691422,113.61000762332583 M 77.99999999999997,115.74999999999962 L 77.56000762332569,115.6920739046914 L 77.14999999999999,115.52224318643397 L 76.79791847198285,115.25208152801764 L 76.52775681356643,114.90000000000045 L 76.35792609530857,114.4899923766738 L 76.3,114.05000000000024 L 76.35792609530857,113.61000762332617 L 76.52775681356643,113.20000000000039 L 76.79791847198285,112.84791847198284 L 77.14999999999999,112.57775681356657 L 77.56000762332569,112.40792609530845 L 77.99999999999997,112.34999999999991 L 78.43999237667425,112.4079260953088 L 78.84999999999998,112.57775681356651 L 79.20208152801712,112.84791847198258 L 79.47224318643352,113.20000000000007 L 79.6420739046914,113.61000762332577 L 79.69999999999997,114.05000000000013 L 79.6420739046914,114.48999237667451 L 79.47224318643352,114.90000000000423 L 79.20208152801712,115.2520815280169 L 78.84999999999998,115.52224318643451 L 78.43999237667425,115.69207390469191 L 77.99999999999997,115.74999999999962 M 76.79791847198285,72.03791847198298 L 77.14999999999999,71.76775681356656 L 77.56000762332569,71.59792609530868 L 77.99999999999997,71.54000000000009 L 78.43999237667425,71.59792609530868 L 78.85000000000001,71.76775681356659 L 79.20208152801712,72.03791847198298 L 79.47224318643352,72.3900000000001 L 79.6420739046914,72.8000076233258 L 79.69999999999997,73.2400000000001 L 79.6420739046914,73.67999237667438 L 79.47224318643352,74.09000000000012 L 79.20208152801712,74.44208152801724 L 78.85000000000001,74.71224318643365 L 78.43999237667425,74.88207390469151 L 77.99999999999997,74.94000000000011 L 77.56000762332572,74.88207390469154 L 77.14999999999999,74.71224318643362 L 76.79791847198288,74.44208152801724 L 76.52775681356643,74.09000000000012 L 76.35792609530857,73.67999237667439 L 76.29999999999998,73.2400000000001 L 76.35792609530857,72.80000762332583 L 76.52775681356646,72.39000000000013 L 76.79791847198285,72.03791847198298 " />
  <path
     id="face0-interior"
     style="fill:none;stroke:#ff0000;stroke-width:0.05;stroke-miterlimit:4;stroke-dasharray:none;stroke-linejoin:round;stroke-linecap:round;stroke-opacity:1"
     d="M 78.99999999999997,51.09999999999999 M 67.49999999999994,51.09999999999999 M 67.19098300562501,51.051056516295056 M 66.91221474770748,50.90901699437493 M 66.69098300562501,50.68778525229248 M 66.54894348370482,50.40901699437496 M 66.49999999999997,50.10000000000003 M 66.49999999999997,19.0 M 66.54894348370485,18.69098300562505 M 66.69098300562504,18.41221474770753 M 66.91221474770751,18.190983005625057 M 67.19098300562504,18.048943483704853 M 67.49999999999997,18.000000000000007 M 78.99999999999994,18.00000000000002 M 79.45684167277014,17.970057014808354 M 79.90586665785878,17.880740392011752 M 80.33939201327777,17.733578363789512 M 80.74999999999997,17.531088913245547 M 81.1306650015305,17.27673669101933 M 81.47487373415288,16.97487373415293 M 81.77673669101927,16.630665001530524 M 82.03108891324553,16.250000000000014 M 82.23357836378949,15.839392013277816 M 82.38074039201172,15.40586665785883 M 82.4700570148083,14.956841672770189 M 82.49999999999997,14.500000000000007 M 82.49999999999997,13.500000000000007 M 82.4327484814113,12.817183872943545 M 82.23357836378949,12.160607986722177 M 81.91014364305889,11.555504184431392 M 81.47487373415291,11.025126265847085 M 80.94449581556859,10.589856356941091 M 80.3393920132778,10.266421636210495 M 79.68281612705644,10.067251518588698 M 78.99999999999997,10.000000000000014 M 13.500000000000014,10.0 M 12.817183872943566,10.06725151858867 M 12.160607986722184,10.266421636210488 M 11.555504184431406,10.589856356941112 M 11.0251262658471,11.025126265847042 M 10.589856356941098,11.555504184431378 M 10.266421636210495,12.16060798672219 M 10.06725151858869,12.817183872943552 M 10.000000000000021,13.499999999999993 M 10.0,55.60000000000003 M 10.06725151858869,56.282816127056414 M 10.266421636210495,56.939392013277875 M 10.589856356941084,57.54449581556869 M 11.025126265847078,58.07487373415304 M 11.555504184431399,58.510143643058946 M 12.160607986722184,58.83357836378955 M 12.817183872943566,59.03274848141145 M 13.5,59.10000000000009 M 78.99999999999997,59.100000000000016 M 79.68281612705644,59.032748481411325 M 80.3393920132778,58.833578363789535 M 80.94449581556859,58.51014364305892 M 81.47487373415291,58.07487373415294 M 81.91014364305889,57.54449581556862 M 82.23357836378949,56.93939201327782 M 82.4327484814113,56.282816127056485 M 82.49999999999997,55.600000000000016 M 82.49999999999997,54.59999999999997 M 82.4700570148083,54.14315832722979 M 82.38074039201169,53.69413334214115 M 82.23357836378946,53.26060798672217 M 82.03108891324553,52.84999999999999 M 81.77673669101927,52.469334998469456 M 81.47487373415288,52.12512626584708 M 81.13066500153047,51.823263308980664 M 80.74999999999997,51.56891108675446 M 80.3393920132778,51.36642163621048 M 79.90586665785881,51.219259607988256 M 79.45684167277014,51.12994298519164 M 55.99999999999998,30.000000000000007 M 55.99999999999998,39.100000000000016 M 55.95105651629513,39.40901699437496 M 55.80901699437492,39.68778525229249 M 55.587785252292456,39.90901699437496 M 55.30901699437492,40.05105651629517 M 54.99999999999998,40.100000000000016 M 48.99999999999998,40.100000000000016 M 48.690983005625036,40.05105651629517 M 48.4122147477075,39.90901699437496 M 48.190983005625036,39.687785252292464 M 48.04894348370481,39.40901699437497 M 47.99999999999998,39.1 M 47.99999999999998,30.00000000000002 M 48.04894348370481,29.69098300562507 M 48.190983005625036,29.41221474770753 M 48.4122147477075,29.19098300562507 M 48.690983005625036,29.04894348370486 M 48.99999999999998,29.0 M 54.99999999999998,29.000000000000014 M 55.30901699437492,29.048943483704846 M 55.587785252292456,29.19098300562507 M 55.80901699437492,29.412214747707544 M 55.95105651629513,29.69098300562507 M 14.500000000000014,12.43999999999999 M 14.939992376674297,12.497926095308607 M 15.350000000000001,12.667756813566456 M 15.702081528017118,12.937918471982904 M 15.972243186433552,13.29 M 16.142073904691415,13.700007623325703 M 16.20000000000001,14.139999999999986 M 16.142073904691422,14.579992376674284 M 15.972243186433545,14.990000000000002 M 15.702081528017139,15.342081528017125 M 15.350000000000009,15.612243186433545 M 14.939992376674297,15.782073904691416 M 14.5,15.83999999999999 M 14.060007623325717,15.782073904691416 M 13.649999999999999,15.612243186433545 M 13.297918471982861,15.342081528017147 M 13.027756813566455,14.990000000000002 M 12.857926095308585,14.579992376674284 M 12.800000000000004,14.139999999999972 M 12.857926095308578,13.700007623325718 M 13.027756813566455,13.29000000000002 M 13.297918471982875,12.937918471982876 M 13.649999999999999,12.667756813566449 M 14.060007623325717,12.497926095308586 M 16.142073904691415,54.5100076233258 M 16.199999999999996,54.95000000000004 M 16.142073904691415,55.38999237667429 M 15.972243186433545,55.79999999999996 M 15.702081528017125,56.1520815280172 M 15.350000000000001,56.42224318643354 M 14.939992376674283,56.59207390469151 M 14.499999999999986,56.6499999999999 M 14.060007623325717,56.592073904691496 M 13.649999999999999,56.42224318643361 M 13.297918471982861,56.152081528017256 M 13.027756813566455,55.79999999999999 M 12.857926095308585,55.389992376674364 M 12.800000000000004,54.94999999999994 M 12.857926095308585,54.510007623325684 M 13.027756813566455,54.09999999999997 M 13.297918471982875,53.74791847198296 M 13.649999999999999,53.47775681356659 M 14.060007623325717,53.30792609530882 M 14.5,53.25000000000022 M 14.939992376674283,53.307926095308765 M 15.350000000000001,53.47775681356655 M 15.702081528017125,53.747918471982764 M 15.972243186433545,54.1000000000002 M 77.99999999999997,56.65000000000001 M 77.5600076233257,56.59207390469141 M 77.14999999999998,56.422243186433555 M 76.79791847198285,56.15208152801714 M 76.52775681356644,55.79999999999999 M 76.35792609530858,55.38999237667429 M 76.29999999999998,54.95000000000001 M 76.35792609530858,54.51000762332573 M 76.52775681356644,54.100000000000016 M 76.79791847198285,53.747918471982864 M 77.14999999999998,53.477756813566465 M 77.5600076233257,53.30792609530861 M 77.99999999999997,53.25000000000001 M 78.43999237667427,53.30792609530861 M 78.85,53.477756813566465 M 79.20208152801712,53.747918471982864 M 79.4722431864335,54.100000000000016 M 79.64207390469139,54.51000762332573 M 79.69999999999996,54.95000000000001 M 79.64207390469139,55.38999237667429 M 79.4722431864335,55.79999999999999 M 79.20208152801712,56.15208152801714 M 78.85,56.422243186433555 M 78.43999237667427,56.59207390469141 M 76.79791847198285,12.937918471982883 M 77.14999999999998,12.667756813566456 M 77.5600076233257,12.4979260953086 M 77.99999999999997,12.440000000000005 M 78.43999237667427,12.4979260953086 M 78.85,12.667756813566456 M 79.20208152801712,12.937918471982883 M 79.4722431864335,13.290000000000006 M 79.64207390469139,13.700007623325718 M 79.69999999999996,14.139999999999993 M 79.64207390469139,14.579992376674284 M 79.4722431864335,14.990000000000009 M 79.20208152801712,15.34208152801714 M 78.85,15.612243186433545 M 78.43999237667427,15.782073904691423 M 77.99999999999997,15.83999999999999 M 77.5600076233257,15.782073904691423 M 77.14999999999998,15.612243186433538 M 76.79791847198285,15.34208152801714 M 76.52775681356644,14.990000000000009 M 76.35792609530858,14.579992376674284 M 76.29999999999998,14.14 M 76.35792609530858,13.700007623325718 M 76.52775681356644,13.29000000000002 " />
  <path
     id="face1-interior"
     style="fill:none;stroke:#ff0000;stroke-width:0.05;stroke-miterlimit:4;stroke-dasharray:none;stroke-linejoin:round;stroke-linecap:round;stroke-opacity:1"
     d="M 10.0,114.7000000000001 M 10.067251518588698,115.38281612705654 M 10.266421636210502,116.0393920132779 M 10.589856356941091,116.64449581556872 M 11.025126265847092,117.17487373415304 M 11.555504184431392,117.61014364305902 M 12.160607986722198,117.93357836378962 M 12.817183872943552,118.13274848141143 M 13.5,118.2000000000001 M 78.99999999999997,118.2000000000001 M 79.68281612705643,118.13274848141143 M 80.3393920132778,117.93357836378952 M 80.94449581556859,117.61014364305913 M 81.4748737341529,117.17487373415324 M 81.91014364305889,116.64449581556883 M 82.23357836378948,116.03939201327788 M 82.43274848141128,115.3828161270554 M 82.49999999999997,114.7000000000001 M 82.49999999999997,72.60000000000011 M 82.43274848141128,71.91718387294367 M 82.23357836378948,71.2606079867223 M 81.91014364305889,70.65550418443149 M 81.4748737341529,70.12512626584719 M 80.94449581556859,69.68985635694122 M 80.3393920132778,69.36642163621062 M 79.68281612705643,69.1672515185888 M 78.99999999999997,69.10000000000008 M 13.500000000000014,69.10000000000011 M 12.817183872943552,69.16725151858881 M 12.160607986722198,69.36642163621062 M 11.555504184431406,69.68985635694119 M 11.025126265847092,70.1251262658472 M 10.589856356941091,70.65550418443149 M 10.26642163621051,71.2606079867223 M 10.067251518588698,71.91718387294367 M 10.0,72.60000000000011 M 14.500000000000007,71.5400000000001 M 14.939992376674283,71.59792609530871 M 15.350000000000009,71.76775681356656 M 15.702081528017125,72.03791847198298 M 15.972243186433552,72.39000000000011 M 16.142073904691422,72.80000762332583 M 16.199999999999996,73.24000000000011 M 16.142073904691408,73.67999237667439 M 15.972243186433538,74.09000000000012 M 15.702081528017139,74.44208152801724 M 15.350000000000009,74.71224318643367 M 14.939992376674283,74.88207390469152 M 14.500000000000007,74.94000000000011 M 14.060007623325717,74.88207390469152 M 13.649999999999999,74.71224318643365 M 13.297918471982875,74.44208152801724 M 13.027756813566455,74.09000000000012 M 12.8579260953086,73.67999237667439 M 12.800000000000004,73.24000000000011 M 12.8579260953086,72.80000762332583 M 13.027756813566455,72.39000000000011 M 13.297918471982875,72.03791847198298 M 13.650000000000013,71.76775681356656 M 14.060007623325724,71.59792609530871 M 16.142073904691422,113.61000762332583 M 16.20000000000001,114.0500000000001 M 16.142073904691422,114.4899923766744 M 15.972243186433552,114.90000000000009 M 15.702081528017139,115.25208152801724 M 15.350000000000009,115.52224318643366 M 14.939992376674283,115.69207390469151 M 14.5,115.7500000000001 M 14.060007623325717,115.69207390469151 M 13.649999999999999,115.52224318643366 M 13.297918471982875,115.25208152801724 M 13.027756813566455,114.9000000000001 M 12.857926095308585,114.4899923766744 M 12.800000000000004,114.0500000000001 M 12.857926095308585,113.61000762332583 M 13.027756813566455,113.2000000000001 M 13.297918471982875,112.84791847198298 M 13.649999999999999,112.57775681356657 M 14.060007623325724,112.4079260953087 M 14.5,112.35000000000011 M 14.939992376674283,112.4079260953087 M 15.350000000000009,112.57775681356657 M 15.702081528017139,112.84791847198298 M 15.972243186433552,113.2000000000001 M 77.99999999999997,115.74999999999962 M 77.56000762332569,115.6920739046914 M 77.14999999999999,115.52224318643397 M 76.79791847198285,115.25208152801764 M 76.52775681356643,114.90000000000045 M 76.35792609530857,114.4899923766738 M 76.3,114.05000000000024 M 76.35792609530857,113.61000762332617 M 76.52775681356643,113.20000000000039 M 76.79791847198285,112.84791847198284 M 77.14999999999999,112.57775681356657 M 77.56000762332569,112.40792609530845 M 77.99999999999997,112.34999999999991 M 78.43999237667425,112.4079260953088 M 78.84999999999998,112.57775681356651 M 79.20208152801712,112.84791847198258 M 79.47224318643352,113.20000000000007 M 79.6420739046914,113.61000762332577 M 79.69999999999997,114.05000000000013 M 79.6420739046914,114.48999237667451 M 79.47224318643352,114.90000000000423 M 79.20208152801712,115.2520815280169 M 78.84999999999998,115.52224318643451 M 78.43999237667425,115.69207390469191 M 76.79791847198285,72.03791847198298 M 77.14999999999999,71.76775681356656 M 77.56000762332569,71.59792609530868 M 77.99999999999997,71.54000000000009 M 78.43999237667425,71.59792609530868 M 78.85000000000001,71.76775681356659 M 79.20208152801712,72.03791847198298 M 79.47224318643352,72.3900000000001 M 79.6420739046914,72.8000076233258 M 79.69999999999997,73.2400000000001 M 79.6420739046914,73.67999237667438 M 79.47224318643352,74.09000000000012 M 79.20208152801712,74.44208152801724 M 78.85000000000001,74.71224318643365 M 78.43999237667425,74.88207390469151 M 77.99999999999997,74.94000000000011 M 77.56000762332572,74.88207390469154 M 77.14999999999999,74.71224318643362 M 76.79791847198288,74.44208152801724 M 76.52775681356643,74.09000000000012 M 76.35792609530857,73.67999237667439 M 76.29999999999998,73.2400000000001 M 76.35792609530857,72.80000762332583 M 76.52775681356646,72.39000000000013 " />
  <path
     id="path8"
     style="fill:none;stroke:#ff0000;stroke-width:0.05;stroke-miterlimit:4;stroke-dasharray:none;stroke-linejoin:round;stroke-linecap:round;stroke-opacity:1"
     d="M 78.99999999999997,51.09999999999999 M 67.49999999999994,51.09999999999999 M 67.19098300562501,51.051056516295056 M 66.91221474770748,50.90901699437493 M 66.69098300562501,50.68778525229248 M 66.54894348370482,50.40901699437496 M 66.49999999999997,50.10000000000003 M 66.49999999999997,19.0 M 66.54894348370485,18.69098300562505 M 66.69098300562504,18.41221474770753 M 66.91221474770751,18.190983005625057 M 67.19098300562504,18.048943483704853 M 67.49999999999997,18.000000000000007 M 78.99999999999994,18.00000000000002 M 79.45684167277014,17.970057014808354 M 79.90586665785878,17.880740392011752 M 80.33939201327777,17.733578363789512 M 80.74999999999997,17.531088913245547 M 81.1306650015305,17.27673669101933 M 81.47487373415288,16.97487373415293 M 81.77673669101927,16.630665001530524 M 82.03108891324553,16.250000000000014 M 82.23357836378949,15.839392013277816 M 82.38074039201172,15.40586665785883 M 82.4700570148083,14.956841672770189 M 82.49999999999997,14.500000000000007 M 82.49999999999997,13.500000000000007 M 82.4327484814113,12.817183872943545 M 82.23357836378949,12.160607986722177 M 81.91014364305889,11.555504184431392 M 81.47487373415291,11.025126265847085 M 80.94449581556859,10.589856356941091 M 80.3393920132778,10.266421636210495 M 79.68281612705644,10.067251518588698 M 78.99999999999997,10.000000000000014 M 13.500000000000014,10.0 M 12.817183872943566,10.06725151858867 M 12.160607986722184,10.266421636210488 M 11.555504184431406,10.589856356941112 M 11.0251262658471,11.025126265847042 M 10.589856356941098,11.555504184431378 M 10.266421636210495,12.16060798672219 M 10.06725151858869,12.817183872943552 M 10.000000000000021,13.499999999999993 M 10.0,55.60000000000003 M 10.06725151858869,56.282816127056414 M 10.266421636210495,56.939392013277875 M 10.589856356941084,57.54449581556869 M 11.025126265847078,58.07487373415304 M 11.555504184431399,58.510143643058946 M 12.160607986722184,58.83357836378955 M 12.817183872943566,59.03274848141145 M 13.5,59.10000000000009 M 78.99999999999997,59.100000000000016 M 79.68281612705644,59.032748481411325 M 80.3393920132778,58.833578363789535 M 80.94449581556859,58.51014364305892 M 81.47487373415291,58.07487373415294 M 81.91014364305889,57.54449581556862 M 82.23357836378949,56.93939201327782 M 82.4327484814113,56.282816127056485 M 82.49999999999997,55.600000000000016 M 82.49999999999997,54.59999999999997 M 82.4700570148083,54.14315832722979 M 82.38074039201169,53.69413334214115 M 82.23357836378946,53.26060798672217 M 82.03108891324553,52.84999999999999 M 81.77673669101927,52.469334998469456 M 81.47487373415288,52.12512626584708 M 81.13066500153047,51.823263308980664 M 80.74999999999997,51.56891108675446 M 80.3393920132778,51.36642163621048 M 79.90586665785881,51.219259607988256 M 79.45684167277014,51.12994298519164 M 55.99999999999998,30.000000000000007 M 55.99999999999998,39.100000000000016 M 55.95105651629513,39.40901699437496 M 55.80901699437492,39.68778525229249 M 55.587785252292456,39.90901699437496 M 55.30901699437492,40.05105651629517 M 54.99999999999998,40.100000000000016 M 48.99999999999998,40.100000000000016 M 48.690983005625036,40.05105651629517 M 48.4122147477075,39.90901699437496 M 48.190983005625036,39.687785252292464 M 48.04894348370481,39.40901699437497 M 47.99999999999998,39.1 M 47.99999999999998,30.00000000000002 M 48.04894348370481,29.69098300562507 M 48.190983005625036,29.41221474770753 M 48.4122147477075,29.19098300562507 M 48.690983005625036,29.04894348370486 M 48.99999999999998,29.0 M 54.99999999999998,29.000000000000014 M 55.30901699437492,29.048943483704846 M 55.587785252292456,29.19098300562507 M 55.80901699437492,29.412214747707544 M 55.95105651629513,29.69098300562507 M 14.500000000000014,12.43999999999999 M 14.939992376674297,12.497926095308607 M 15.350000000000001,12.667756813566456 M 15.702081528017118,12.937918471982904 M 15.972243186433552,13.29 M 16.142073904691415,13.700007623325703 M 16.20000000000001,14.139999999999986 M 16.142073904691422,14.579992376674284 M 15.972243186433545,14.990000000000002 M 15.702081528017139,15.342081528017125 M 15.350000000000009,15.612243186433545 M 14.939992376674297,15.782073904691416 M 14.5,15.83999999999999 M 14.060007623325717,15.782073904691416 M 13.649999999999999,15.612243186433545 M 13.297918471982861,15.342081528017147 M 13.027756813566455,14.990000000000002 M 12.857926095308585,14.579992376674284 M 12.800000000000004,14.139999999999972 M 12.857926095308578,13.700007623325718 M 13.027756813566455,13.29000000000002 M 13.297918471982875,12.937918471982876 M 13.649999999999999,12.667756813566449 M 14.060007623325717,12.497926095308586 M 16.142073904691415,54.5100076233258 M 16.199999999999996,54.95000000000004 M 16.142073904691415,55.38999237667429 M 15.972243186433545,55.79999999999996 M 15.702081528017125,56.1520815280172 M 15.350000000000001,56.42224318643354 M 14.939992376674283,56.59207390469151 M 14.499999999999986,56.6499999999999 M 14.060007623325717,56.592073904691496 M 13.649999999999999,56.42224318643361 M 13.297918471982861,56.152081528017256 M 13.027756813566455,55.79999999999999 M 12.857926095308585,55.389992376674364 M 12.800000000000004,54.94999999999994 M 12.857926095308585,54.510007623325684 M 13.027756813566455,54.09999999999997 M 13.297918471982875,53.74791847198296 M 13.649999999999999,53.47775681356659 M 14.060007623325717,53.30792609530882 M 14.5,53.25000000000022 M 14.939992376674283,53.307926095308765 M 15.350000000000001,53.47775681356655 M 15.702081528017125,53.747918471982764 M 15.972243186433545,54.1000000000002 M 77.99999999999997,56.65000000000001 M 77.5600076233257,56.59207390469141 M 77.14999999999998,56.422243186433555 M 76.79791847198285,56.15208152801714 M 76.52775681356644,55.79999999999999 M 76.35792609530858,55.38999237667429 M 76.29999999999998,54.95000000000001 M 76.35792609530858,54.51000762332573 M 76.52775681356644,54.100000000000016 M 76.79791847198285,53.747918471982864 M 77.14999999999998,53.477756813566465 M 77.5600076233257,53.30792609530861 M 77.99999999999997,53.25000000000001 M 78.43999237667427,53.30792609530861 M 78.85,53.477756813566465 M 79.20208152801712,53.747918471982864 M 79.4722431864335,54.100000000000016 M 79.64207390469139,54.51000762332573 M 79.69999999999996,54.95000000000001 M 79.64207390469139,55.38999237667429 M 79.4722431864335,55.79999999999999 M 79.20208152801712,56.15208152801714 M 78.85,56.422243186433555 M 78.43999237667427,56.59207390469141 M 76.79791847198285,12.937918471982883 M 77.14999999999998,12.667756813566456 M 77.5600076233257,12.4979260953086 M 77.99999999999997,12.440000000000005 M 78.43999237667427,12.4979260953086 M 78.85,12.667756813566456 M 79.20208152801712,12.937918471982883 M 79.4722431864335,13.290000000000006 M 79.64207390469139,13.700007623325718 M 79.69999999999996,14.139999999999993 M 79.64207390469139,14.579992376674284 M 79.4722431864335,14.990000000000009 M 79.20208152801712,15.34208152801714 M 78.85,15.612243186433545 M 78.43999237667427,15.782073904691423 M 77.99999999999997,15.83999999999999 M 77.5600076233257,15.782073904691423 M 77.14999999999998,15.612243186433538 M 76.79791847198285,15.34208152801714 M 76.52775681356644,14.990000000000009 M 76.35792609530858,14.579992376674284 M 76.29999999999998,14.14 M 76.35792609530858,13.700007623325718 M 76.52775681356644,13.29000000000002 " />
  <path
     id="path10"
     style="fill:none;stroke:#ff0000;stroke-width:0.05;stroke-miterlimit:4;stroke-dasharray:none;stroke-linejoin:round;stroke-linecap:round;stroke-opacity:1"
     d="M 10.0,114.7000000000001 M 10.067251518588698,115.38281612705654 M 10.266421636210502,116.0393920132779 M 10.589856356941091,116.64449581556872 M 11.025126265847092,117.17487373415304 M 11.555504184431392,117.61014364305902 M 12.160607986722198,117.93357836378962 M 12.817183872943552,118.13274848141143 M 13.5,118.2000000000001 M 78.99999999999997,118.2000000000001 M 79.68281612705643,118.13274848141143 M 80.3393920132778,117.93357836378952 M 80.94449581556859,117.61014364305913 M 81.4748737341529,117.17487373415324 M 81.91014364305889,116.64449581556883 M 82.23357836378948,116.03939201327788 M 82.43274848141128,115.3828161270554 M 82.49999999999997,114.7000000000001 M 82.49999999999997,72.60000000000011 M 82.43274848141128,71.91718387294367 M 82.23357836378948,71.2606079867223 M 81.91014364305889,70.65550418443149 M 81.4748737341529,70.12512626584719 M 80.94449581556859,69.68985635694122 M 80.3393920132778,69.36642163621062 M 79.68281612705643,69.1672515185888 M 78.99999999999997,69.10000000000008 M 13.500000000000014,69.10000000000011 M 12.817183872943552,69.16725151858881 M 12.160607986722198,69.36642163621062 M 11.555504184431406,69.68985635694119 M 11.025126265847092,70.1251262658472 M 10.589856356941091,70.65550418443149 M 10.26642163621051,71.2606079867223 M 10.067251518588698,71.91718387294367 M 10.0,72.60000000000011 M 14.500000000000007,71.5400000000001 M 14.939992376674283,71.59792609530871 M 15.350000000000009,71.76775681356656 M 15.702081528017125,72.03791847198298 M 15.972243186433552,72.39000000000011 M 16.142073904691422,72.80000762332583 M 16.199999999999996,73.24000000000011 M 16.142073904691408,73.67999237667439 M 15.972243186433538,74.09000000000012 M 15.702081528017139,74.44208152801724 M 15.350000000000009,74.71224318643367 M 14.939992376674283,74.88207390469152 M 14.500000000000007,74.94000000000011 M 14.060007623325717,74.88207390469152 M 13.649999999999999,74.71224318643365 M 13.297918471982875,74.44208152801724 M 13.027756813566455,74.09000000000012 M 12.8579260953086,73.67999237667439 M 12.800000000000004,73.24000000000011 M 12.8579260953086,72.80000762332583 M 13.027756813566455,72.39000000000011 M 13.297918471982875,72.03791847198298 M 13.650000000000013,71.76775681356656 M 14.060007623325724,71.59792609530871 M 16.142073904691422,113.61000762332583 M 16.20000000000001,114.0500000000001 M 16.142073904691422,114.4899923766744 M 15.972243186433552,114.90000000000009 M 15.702081528017139,115.25208152801724 M 15.350000000000009,115.52224318643366 M 14.939992376674283,115.69207390469151 M 14.5,115.7500000000001 M 14.060007623325717,115.69207390469151 M 13.649999999999999,115.52224318643366 M 13.297918471982875,115.25208152801724 M 13.027756813566455,114.9000000000001 M 12.857926095308585,114.4899923766744 M 12.800000000000004,114.0500000000001 M 12.857926095308585,113.61000762332583 M 13.027756813566455,113.2000000000001 M 13.297918471982875,112.84791847198298 M 13.649999999999999,112.57775681356657 M 14.060007623325724,112.4079260953087 M 14.5,112.35000000000011 M 14.939992376674283,112.4079260953087 M 15.350000000000009,112.57775681356657 M 15.702081528017139,112.84791847198298 M 15.972243186433552,113.2000000000001 M 77.99999999999997,115.74999999999962 M 77.56000762332569,115.6920739046914 M 77.14999999999999,115.52224318643397 M 76.79791847198285,115.25208152801764 M 76.52775681356643,114.90000000000045 M 76.35792609530857,114.4899923766738 M 76.3,114.05000000000024 M 76.35792609530857,113.61000762332617 M 76.52775681356643,113.20000000000039 M 76.79791847198285,112.84791847198284 M 77.14999999999999,112.57775681356657 M 77.56000762332569,112.40792609530845 M 77.99999999999997,112.34999999999991 M 78.43999237667425,112.4079260953088 M 78.84999999999998,112.57775681356651 M 79.20208152801712,112.84791847198258 M 79.47224318643352,113.20000000000007 M 79.6420739046914,113.61000762332577 M 79.69999999999997,114.05000000000013 M 79.6420739046914,114.48999237667451 M 79.47224318643352,114.90000000000423 M 79.20208152801712,115.2520815280169 M 78.84999999999998,115.52224318643451 M 78.43999237667425,115.69207390469191 M 76.79791847198285,72.03791847198298 M 77.14999999999999,71.76775681356656 M 77.56000762332569,71.59792609530868 M 77.99999999999997,71.54000000000009 M 78.43999237667425,71.59792609530868 M 78.85000000000001,71.76775681356659 M 79.20208152801712,72.03791847198298 M 79.47224318643352,72.3900000000001 M 79.6420739046914,72.8000076233258 M 79.69999999999997,73.2400000000001 M 79.6420739046914,73.67999237667438 M 79.47224318643352,74.09000000000012 M 79.20208152801712,74.44208152801724 M 78.85000000000001,74.71224318643365 M 78.43999237667425,74.88207390469151 M 77.99999999999997,74.94000000000011 M 77.56000762332572,74.88207390469154 M 77.14999999999999,74.71224318643362 M 76.79791847198288,74.44208152801724 M 76.52775681356643,74.09000000000012 M 76.35792609530857,73.67999237667439 M 76.29999999999998,73.2400000000001 M 76.35792609530857,72.80000762332583 M 76.52775681356646,72.39000000000013 " />
</svg>
